<?xml version="1.0" encoding="utf-8"?>
<!-- Generator: Adobe Illustrator 23.0.1, SVG Export Plug-In . SVG Version: 6.00 Build 0)  -->
<svg version="1.1" id="Layer_1" xmlns="http://www.w3.org/2000/svg" xmlns:xlink="http://www.w3.org/1999/xlink" x="0px" y="0px"
	 viewBox="0 0 250 50" style="enable-background:new 0 0 250 50;" xml:space="preserve">
<style type="text/css">
	.st0{fill:#0065BD;}
</style>
<g>
	<path class="st0" d="M56.2,18c1.8-0.1,2-0.2,2-0.8c0-0.3-0.3-1.2-0.5-1.7l-1.2-3.3c-0.3,0-0.7,0-1,0c-1.2,0-2.5,0.1-3.8,0.1
		c-0.7,1.7-1.5,4.5-1.5,5c0,0.6,0.2,0.6,2,0.7v0.7c-0.5,0-1.2-0.1-2.4-0.1c-1,0-2,0-2.6,0.1v-0.6l0.9-0.1c0.3,0,0.6-0.2,0.9-1
		c1.1-2.8,4.5-11.3,4.6-12.4c0.5-0.5,1-1.4,1-1.9h0.7c0.1,0.6,0.2,1.1,0.3,1.7l4.3,12.3c0.3,1,0.6,1.4,1.2,1.5l0.7,0.1v0.7
		c-0.6,0-1.4-0.1-2.6-0.1c-1.2,0-2.3,0-3.1,0.1V18H56.2z M52.1,11.4c0.9,0,2.3,0.1,3.3,0.1c0.3,0,0.7,0,1.1,0
		c-0.3-1.9-1.7-5.5-2-6.3C53.5,7.2,52.7,9.5,52.1,11.4z"/>
	<path class="st0" d="M62.9,9.9C64,9.8,64.6,9.5,65,8.6h0.5v2l1.2-1.1c0.2-0.2,1.2-0.6,2-0.6c1.1,0,2.1,0.5,2.6,1.6l1.2-1.1
		c0.2-0.2,1.2-0.6,1.8-0.6c1.8,0,3.1,0.9,3.1,3.4c0,1.1-0.1,3.7-0.1,4.6c0,0.8,0,0.9,0.7,0.9l0.7,0.1v0.6c-0.6,0-1.2-0.1-2.1-0.1
		c-1,0-1.7,0-2.4,0.1v-0.6l1.1-0.1c0.6-0.1,0.7-0.2,0.7-3.6c0-0.6,0-1.7-0.1-2.5c-0.1-1.2-1.2-1.7-2-1.7c-0.7,0-1.4,0.2-2.3,1
		c0.1,0.5,0.1,1,0.1,1.4c0,1.1-0.1,3.7-0.1,4.6c0,0.8,0,0.9,0.7,0.9L73,18v0.6c-0.6,0-1.2-0.1-2.1-0.1c-1,0-1.7,0-2.4,0.1V18
		l1.1-0.1c0.5,0,0.6-0.1,0.6-3.5c0-0.6,0-1.7-0.1-2.5c-0.1-1.2-1.2-1.7-2-1.7c-0.7,0-1.2,0.1-2.3,1v5.8c0,0.7,0,1,0.7,1l0.7,0.1v0.6
		c-0.6,0-1.4-0.1-2.1-0.1c-0.8,0-1.6,0-2.4,0.1v-0.6l0.9-0.1c0.6-0.1,0.7-0.3,0.7-1v-5.3c0-0.7-0.2-0.9-1.2-1V9.9z"/>
	<path class="st0" d="M88.6,17.2c-0.9,1.1-2.1,1.8-4,1.8c-2.6,0-4.5-2-4.5-5c0-2.5,1.8-4.9,4.6-4.9c2.4,0,3.8,1.7,3.8,3.4v0.3
		c-0.3-0.1-2-0.1-2.9-0.1h-1.8c-1,0-1.8,0-2,0.1c0,0.1,0,0.3,0,0.7c0,2.4,1.7,4.3,3.8,4.3c1.1,0,1.8-0.3,2.7-1.1L88.6,17.2z
		 M84.6,9.7c-1.5,0-2.8,1.5-2.8,2.3c0,0.1,0.1,0.2,0.5,0.2l2.4-0.1c2-0.1,2.1-0.2,2.1-0.7C86.8,10.4,85.9,9.7,84.6,9.7z"/>
	<path class="st0" d="M89.8,18.1l0.9-0.1c0.6-0.1,0.7-0.3,0.7-1v-5.3c0-0.7-0.2-0.9-1.2-1V10c1.1-0.1,1.7-0.5,2.1-1.4h0.5v2
		c1-1,2-1.6,2.7-1.6c1,0,1.4,1.2,1.4,1.5c0,0.3-0.2,0.8-0.7,0.8c-1.2,0-1-1.1-1.6-1.1c-0.2,0-0.8,0.5-1.6,1.1V17
		c0,0.7,0.1,0.9,1,0.9l1,0.1v0.6c-0.9,0-1.7-0.1-2.6-0.1c-0.9,0-1.7,0-2.6,0.1C89.8,18.6,89.8,18.1,89.8,18.1z"/>
	<path class="st0" d="M97.4,18.1l0.8-0.1c0.6-0.1,0.8-0.3,0.8-0.7c0.1-0.5,0.1-1.2,0.1-3.5c0-2.5,0-2.9-0.1-3.2
		c-0.2-0.5-0.8-0.6-1.2-0.6V9.5c1.6-0.1,2.1-0.3,2.7-1.4h0.5c-0.2,1.4-0.2,4-0.2,5.8c0,2.3,0,3.2,0.1,3.6c0,0.3,0.2,0.5,0.8,0.5
		l0.8,0.1v0.6c-0.8,0-1.7-0.1-2.5-0.1c-0.8,0-1.6,0-2.4,0.1v-0.6H97.4z M100.1,3.5c0.6,0,0.9,0.3,0.9,0.9c0,0.7-0.7,1.4-1.4,1.4
		c-0.6,0-0.9-0.5-0.9-0.9C98.8,3.8,99.7,3.5,100.1,3.5z"/>
	<path class="st0" d="M111.5,17.4c-1,1.1-2.1,1.6-3.4,1.6c-2.5,0-4.5-2-4.5-4.6c0-2.8,1.9-5.3,5-5.3c2.1,0,3.1,0.8,3.1,2
		c0,0.3-0.2,0.6-0.6,0.6s-1.2-0.3-1.4-0.9c-0.2-0.7-0.7-1-1.4-1c-1.1,0-3.1,1-3.1,3.8c0,2,1.2,4.2,3.5,4.2c0.8,0,1.8-0.3,2.4-0.7
		L111.5,17.4z"/>
	<path class="st0" d="M118.4,11.8c0-1.7-0.6-2-1.2-2c-0.9,0-2,0.5-2,1.8c0,1.2-0.8,1.4-1.2,1.4s-0.6-0.2-0.6-0.6
		c0-1.5,2.7-3.5,4.6-3.5c1.1,0,2.1,0.5,2.1,2.4c0,1.7-0.1,3.4-0.1,5.1c0,0.9,0.1,1.2,0.5,1.2c0.2,0,0.6-0.2,0.9-0.7l0.1,0.6
		c-0.2,0.6-1,1.2-1.6,1.2c-0.6,0-1-0.2-1.5-1.6c-1.5,1.2-2.5,1.6-3.3,1.6c-1.2,0-1.9-0.9-1.9-1.9c0-1.5,1.4-2.6,5.2-4.1V11.8z
		 M118.4,13.5c-2.3,0.9-3.5,1.9-3.5,3.2c0,0.7,0.5,1.1,1.2,1.1c0.8,0,1.8-0.5,2.1-1.1c0.1-0.1,0.2-0.7,0.2-1.1v-2H118.4z"/>
	<path class="st0" d="M126.2,9.7c0.5-0.3,1.2-0.7,2.4-0.7c1.8,0,3.1,0.9,3.1,3.4c0,1.1-0.1,3.7-0.1,4.6c0,0.8,0,0.9,0.7,0.9l0.7,0.1
		v0.6c-0.6,0-1.2-0.1-2.1-0.1c-1,0-1.7,0-2.4,0.1v-0.6l1.1-0.1c0.6-0.1,0.7-0.2,0.7-3.6c0-0.6,0-1.7-0.1-2.5c-0.1-1.2-1.2-1.7-2-1.7
		c-1,0-1.8,0.5-2.6,1v5.8c0,0.7,0,1,0.7,1l0.9,0.1v0.6c-0.7,0-1.5-0.1-2.3-0.1c-1,0-1.7,0.1-2.4,0.1v-0.6l0.9-0.1
		c0.6-0.1,0.7-0.3,0.7-1v-5.3c0-0.7-0.2-0.9-1.2-1V10c1.1-0.1,1.7-0.5,2.1-1.4h0.5v2l0,0L126.2,9.7z"/>
	<path class="st0" d="M152.8,14.8l-0.3,3.1c-1.2,0.7-2.9,1-4.8,1c-4.5,0-8-3.3-8-7.9c0-4.1,2.9-8.1,8-8.1c1.6,0,3.1,0.2,4.6,0.8v2.9
		h-0.7l-0.2-0.8c-0.3-1.4-1.7-2.3-3.8-2.3c-3.4,0-5.8,2.6-5.8,7.4c0,5.2,2.8,7.5,5.9,7.5c1.2,0,3.5-0.3,4-2.5l0.2-1H152.8z"/>
	<path class="st0" d="M159.4,9c3.4,0,4.9,2.5,4.9,4.8c0,2.5-1.8,5.1-5,5.1s-4.9-2.7-4.9-5C154.4,11.2,156.6,9,159.4,9z M162.4,14.7
		c-0.1-2.7-1.1-4.9-3.3-5c-1.7,0-2.9,1.8-2.9,3.8c0,2.1,1.1,4.8,3.5,4.8C162.2,18.3,162.4,15.7,162.4,14.7z"/>
	<path class="st0" d="M165.4,2.9c0.9-0.2,2-0.6,2.7-0.9h0.6c-0.1,3.8-0.1,7.1-0.1,11.9c0,2.3,0,3.2,0.1,3.6c0,0.3,0.2,0.5,0.8,0.5
		l0.8,0.1v0.6c-0.8,0-1.7-0.1-2.5-0.1c-0.8,0-1.6,0-2.7,0.1v-0.6l1-0.1c0.6-0.1,0.8-0.3,0.8-0.7c0.1-0.5,0.1-1.2,0.1-3.5V8.7
		c0-4,0-4.6-0.2-5.1c-0.1-0.2-0.3-0.3-1.2-0.3V2.9H165.4z"/>
	<path class="st0" d="M171,2.9c0.9-0.2,2-0.6,2.7-0.9h0.6c-0.1,3.8-0.1,7.1-0.1,11.9c0,2.3,0,3.2,0.1,3.6c0,0.3,0.2,0.5,0.8,0.5
		l0.8,0.1v0.6c-0.8,0-1.7-0.1-2.5-0.1s-1.6,0-2.7,0.1v-0.6l1-0.1c0.6-0.1,0.8-0.3,0.8-0.7c0.1-0.5,0.1-1.2,0.1-3.5V8.7
		c0-4,0-4.6-0.2-5.1c-0.1-0.2-0.3-0.3-1.2-0.3V2.9H171z"/>
	<path class="st0" d="M185.3,17.2c-0.9,1.1-2.1,1.8-4,1.8c-2.6,0-4.5-2-4.5-5c0-2.5,1.8-4.9,4.6-4.9c2.4,0,3.8,1.7,3.8,3.4v0.3
		c-0.3-0.1-2-0.1-2.9-0.1h-1.8c-1,0-1.8,0-2,0.1c0,0.1,0,0.3,0,0.7c0,2.4,1.7,4.3,3.8,4.3c1.1,0,1.8-0.3,2.7-1.1L185.3,17.2z
		 M181.3,9.7c-1.5,0-2.8,1.5-2.8,2.3c0,0.1,0.1,0.2,0.5,0.2l2.4-0.1c2-0.1,2.1-0.2,2.1-0.7C183.5,10.4,182.6,9.7,181.3,9.7z"/>
	<path class="st0" d="M195.5,19.8c0,1-0.9,3.6-5.3,3.6c-2.8,0-3.8-1.1-3.8-2c0-1.2,1.2-1.9,2.3-2.4l0,0c-1-0.1-1.9-0.8-1.9-1.4
		c0-0.5,0.1-0.8,1.2-1.4l1.1-0.6c-1-0.5-1.8-1.7-1.8-3.1c0-2.1,1.7-3.5,3.7-3.5c0.8,0,1.7,0.3,2.3,0.9l2.4-0.1
		c0.1,0,0.2,0.1,0.2,0.2v0.7c0,0.1-0.1,0.2-0.3,0.2c-0.1,0-0.7-0.1-1.6-0.3l0,0c0.5,0.6,0.6,1.2,0.6,1.9c0,2-1.7,3.5-3.6,3.5
		c-0.6,0-0.9,0-1.2-0.1l-0.8,0.6c-0.5,0.2-0.6,0.5-0.6,0.7c0,0.2,0.3,0.6,1.2,0.6c1.1,0,2.8-0.1,3.4-0.1
		C195.2,17.6,195.5,19,195.5,19.8z M189.4,19c-1.1,0.6-1.7,1.1-1.7,1.9c0,0.7,0.6,1.9,2.8,1.9c1.1,0,3.8-0.6,3.8-2.5
		c0-1.1-0.9-1.6-2.6-1.5L189.4,19z M190.5,9.6c-1,0-1.8,0.8-1.8,2.4c0,1.2,0.8,3.5,2.3,3.5c1.4,0,1.8-1,1.8-2.1
		C192.8,11.7,192.2,9.6,190.5,9.6z"/>
	<path class="st0" d="M205.3,17.2c-0.9,1.1-2.1,1.8-4,1.8c-2.6,0-4.5-2-4.5-5c0-2.5,1.8-4.9,4.6-4.9c2.4,0,3.8,1.7,3.8,3.4v0.3
		c-0.3-0.1-2-0.1-2.9-0.1h-1.8c-1,0-1.8,0-2,0.1c0,0.1,0,0.3,0,0.7c0,2.4,1.7,4.3,3.8,4.3c1.1,0,1.8-0.3,2.7-1.1L205.3,17.2z
		 M201.4,9.7c-1.5,0-2.8,1.5-2.8,2.3c0,0.1,0.1,0.2,0.5,0.2l2.4-0.1c2-0.1,2.1-0.2,2.1-0.7C203.5,10.4,202.6,9.7,201.4,9.7z"/>
	<path class="st0" d="M216.9,9c3.4,0,4.9,2.5,4.9,4.8c0,2.5-1.8,5.1-5,5.1c-3.2,0-4.9-2.7-4.9-5C211.9,11.2,214.1,9,216.9,9z
		 M219.9,14.7c-0.1-2.7-1.1-4.9-3.3-5c-1.7,0-2.9,1.8-2.9,3.8c0,2.1,1.1,4.8,3.5,4.8C219.7,18.3,219.9,15.7,219.9,14.7z"/>
	<path class="st0" d="M222.9,9.7c0.8-0.1,1-0.1,1.6-0.1V8.9c0-5,2.3-6.9,4.4-6.9c0.6,0,1.5,0.1,1.5,0.9c0,0.3-0.3,0.8-0.8,0.8
		c-0.8,0-0.6-0.8-1.6-0.8c-0.8,0-1.8,0.7-1.8,3.1v3.5l2.8-0.1v0.9H226v3.6c0,2.3,0,3.2,0.1,3.6c0,0.3,0.2,0.5,0.8,0.5l1.4,0.1v0.6
		c-1.5,0-2.3-0.1-3.2-0.1c-0.8,0-1.6,0-2.4,0.1v-0.6l0.8-0.1c0.6-0.1,0.8-0.3,0.8-0.7c0.1-0.5,0.1-1.2,0.1-3.5s0-3.1-0.1-3.6h-1.5
		V9.7z"/>
</g>
<g>
	<path class="st0" d="M47.5,42.5c1.8-0.1,2-0.2,2.1-0.3c0.1-0.2,0.2-0.6,0.2-4.1v-5.5c0-3.4-0.1-3.8-0.2-4.1
		c-0.1-0.1-0.2-0.2-2.1-0.3v-0.7c1,0,2.6,0.1,3.4,0.1c1.1,0,7,0,8.4-0.1v3.2h-0.8l-0.2-1.1c-0.2-1.1-0.3-1.2-3.6-1.2
		c-2.8,0-2.8,0.2-2.8,0.7l-0.1,5.7c0.6,0,1.5,0,2.8,0c2.4,0,2.4-0.1,2.4-1v-0.9h0.7c0,0.8,0,1.5,0,2.3c0,0.6,0,1.7,0,2.4h-0.7
		c0-1.8,0-1.8-0.9-1.9c-0.5,0-1.1-0.1-1.8-0.1c-0.9,0-1.8,0-2.4,0c0,1.6-0.1,3.2-0.1,4.8c0,2,0.1,2,1,2h3.8c2,0,2.6-0.6,3.3-2.8h0.7
		L59.8,43c-1.7-0.1-4.1-0.1-6.4-0.1c-2.4,0-4.2,0-5.9,0.1V42.5z"/>
	<path class="st0" d="M61.7,34.6c1.1-0.1,1.7-0.5,2.1-1.4h0.5v2l1.2-1.1c0.2-0.2,1.2-0.6,2-0.6c1.1,0,2.1,0.5,2.6,1.6l1.2-1.1
		c0.2-0.2,1.2-0.6,1.8-0.6c1.8,0,3.1,0.9,3.1,3.4c0,1.1-0.1,3.7-0.1,4.6c0,0.8,0,0.9,0.7,0.9l0.7,0.1v0.6c-0.6,0-1.2-0.1-2.1-0.1
		c-1,0-1.7,0-2.4,0.1v-0.5l1.1-0.1c0.6-0.1,0.7-0.2,0.7-3.6c0-0.6,0-1.7-0.1-2.5c-0.1-1.2-1.2-1.7-2-1.7c-0.7,0-1.4,0.2-2.3,1
		c0.1,0.5,0.1,1,0.1,1.4c0,1.1-0.1,3.7-0.1,4.6c0,0.8,0,0.9,0.7,0.9l0.7,0.1v0.6c-0.6,0-1.2-0.1-2.1-0.1c-1,0-1.7,0-2.4,0.1v-0.7
		l1.1-0.1c0.6-0.1,0.7-0.2,0.7-3.6c0-0.6,0-1.7-0.1-2.5c-0.1-1.2-1.2-1.7-2-1.7c-0.7,0-1.2,0.1-2.3,1v5.8c0,0.7,0,1,0.7,1l0.7,0.1
		v0.6c-0.6,0-1.4-0.1-2.1-0.1c-0.8,0-1.6,0-2.4,0.1v-0.6l0.9-0.1c0.6-0.1,0.7-0.3,0.7-1v-5.3c0-0.7-0.2-0.9-1.2-1v-0.6H61.7z"/>
	<path class="st0" d="M87.4,41.7c-0.9,1.1-2.1,1.8-4,1.8c-2.6,0-4.5-2-4.5-5c0-2.5,1.8-4.9,4.6-4.9c2.4,0,3.8,1.7,3.8,3.4v0.3
		c-0.3-0.1-2-0.1-2.9-0.1h-1.9c-1,0-1.8,0-2,0.1c0,0.1,0,0.3,0,0.7c0,2.4,1.7,4.3,3.8,4.3c1.1,0,1.8-0.3,2.7-1.1L87.4,41.7z
		 M83.4,34.2c-1.5,0-2.8,1.5-2.8,2.3c0,0.1,0.1,0.2,0.5,0.2l2.4-0.1c2-0.1,2.1-0.2,2.1-0.7C85.5,34.9,84.6,34.2,83.4,34.2z"/>
	<path class="st0" d="M88.6,42.6l0.9-0.1c0.6-0.1,0.7-0.3,0.7-1v-5.3c0-0.7-0.2-0.9-1.2-1v-0.6c1.1-0.1,1.7-0.5,2.1-1.4h0.6v2
		c1-1,2-1.6,2.7-1.6c1,0,1.4,1.2,1.4,1.5c0,0.3-0.2,0.8-0.7,0.8c-1.2,0-1-1.1-1.6-1.1c-0.2,0-0.8,0.5-1.6,1.1v5.7
		c0,0.7,0.1,0.9,1,0.9l1,0.1v0.6c-0.9,0-1.7-0.1-2.6-0.1s-1.7,0-2.6,0.1v-0.6H88.6z"/>
	<path class="st0" d="M105.5,44.3c0,1-0.9,3.6-5.3,3.6c-2.8,0-3.8-1.1-3.8-2c0-1.2,1.2-1.9,2.3-2.4l0,0c-1-0.1-1.9-0.8-1.9-1.4
		c0-0.5,0.1-0.8,1.2-1.4l1.1-0.6c-1-0.5-1.8-1.7-1.8-3.1c0-2.1,1.7-3.5,3.7-3.5c0.8,0,1.7,0.3,2.3,0.9l2.4-0.1
		c0.1,0,0.2,0.1,0.2,0.2v0.7c0,0.1-0.1,0.2-0.3,0.2c-0.1,0-0.7-0.1-1.6-0.3l0,0c0.5,0.6,0.6,1.2,0.6,1.9c0,2-1.7,3.5-3.6,3.5
		c-0.6,0-0.9,0-1.2-0.1l-0.8,0.6c-0.5,0.2-0.6,0.5-0.6,0.7c0,0.2,0.3,0.6,1.2,0.6c1.1,0,2.8-0.1,3.4-0.1
		C105.3,42.2,105.5,43.5,105.5,44.3z M99.4,43.5c-1.1,0.6-1.7,1.1-1.7,1.9c0,0.7,0.6,1.9,2.8,1.9c1.1,0,3.8-0.6,3.8-2.5
		c0-1.1-0.9-1.6-2.6-1.5L99.4,43.5z M100.6,34.1c-1,0-1.8,0.8-1.8,2.4c0,1.2,0.8,3.5,2.3,3.5c1.4,0,1.8-1,1.8-2.1
		C102.8,36.3,102.3,34.1,100.6,34.1z"/>
	<path class="st0" d="M115.4,41.7c-0.9,1.1-2.1,1.8-4,1.8c-2.6,0-4.5-2-4.5-5c0-2.5,1.8-4.9,4.6-4.9c2.4,0,3.8,1.7,3.8,3.4v0.3
		c-0.3-0.1-2-0.1-2.9-0.1h-1.8c-1,0-1.8,0-2,0.1c0,0.1,0,0.3,0,0.7c0,2.4,1.7,4.3,3.8,4.3c1.1,0,1.8-0.3,2.7-1.1L115.4,41.7z
		 M111.4,34.2c-1.5,0-2.8,1.5-2.8,2.3c0,0.1,0.1,0.2,0.5,0.2l2.4-0.1c2-0.1,2.1-0.2,2.1-0.7C113.6,34.9,112.7,34.2,111.4,34.2z"/>
	<path class="st0" d="M120.2,34.2c0.5-0.3,1.2-0.7,2.4-0.7c1.8,0,3.1,0.9,3.1,3.4c0,1.1-0.1,3.7-0.1,4.6c0,0.8,0,0.9,0.7,0.9
		l0.7,0.1v0.6c-0.6,0-1.2-0.1-2.1-0.1c-1,0-1.7,0-2.4,0.1v-0.6l1.1-0.1c0.6-0.1,0.7-0.2,0.7-3.6c0-0.6,0-1.7-0.1-2.5
		c-0.1-1.2-1.2-1.7-2-1.7c-1,0-1.8,0.5-2.6,1v5.8c0,0.7,0,1,0.7,1l0.9,0.1v0.6c-0.7,0-1.5-0.1-2.3-0.1c-1,0-1.7,0.1-2.4,0.1v-0.6
		l0.9-0.1c0.6-0.1,0.7-0.3,0.7-1v-5.3c0-0.7-0.2-0.9-1.2-1v-0.6c1.1-0.1,1.7-0.5,2.1-1.4h0.5v2l0,0L120.2,34.2z"/>
	<path class="st0" d="M136.4,41.9c-1,1.1-2.1,1.6-3.4,1.6c-2.5,0-4.5-2-4.5-4.6c0-2.8,1.9-5.3,5-5.3c2.1,0,3.1,0.8,3.1,2
		c0,0.3-0.2,0.6-0.6,0.6c-0.3,0-1.2-0.3-1.4-0.9c-0.2-0.7-0.7-1-1.4-1c-1.1,0-3.1,1-3.1,3.8c0,2,1.2,4.2,3.5,4.2
		c0.8,0,1.8-0.3,2.4-0.7L136.4,41.9z"/>
	<path class="st0" d="M143.2,33.9c0.3,0,0.9,0.1,1.7,0.1c0.6,0,1.2,0,1.8-0.1v0.6c-0.7,0-0.8,0.2-1,0.8l-2.4,6
		c-1.7,4.3-2.7,5.7-3.1,6.1c-0.3,0.3-1.1,0.7-1.8,0.7c-0.5,0-0.7-0.1-0.7-0.5c0-0.3,0.3-1.5,0.9-1.5c0.3,0,0.7,0.5,1,0.5
		s0.9-0.6,1.6-2l0.5-0.9l-2.4-5.8c-1.2-3.2-1.5-3.2-2-3.2v-0.6c0.5,0,1,0.1,1.8,0.1s1.5,0,2.1-0.1v0.6c-1,0-1.4,0.1-1.4,0.5
		c0,0.3,0.5,1.8,1.2,3.6l1.2,2.9c1-2.1,2.1-5.7,2.1-6.3c0-0.5-0.2-0.7-1.4-0.7L143.2,33.9L143.2,33.9z"/>
	<path class="st0" d="M157.5,35.9c0.2,0,0.6,0.1,0.9,0.1c3.1,0,4.3-1.8,4.3-3.7c0-2.7-1.9-4-4.3-4c-1.6,0-1.7,0.1-1.7,0.7
		c0,1.2-0.1,2.4-0.1,3.6v5.7c0,2.4,0,3.7,0.2,4s0.6,0.2,2.3,0.3v0.7c-0.9,0-2-0.1-3.5-0.1c-1.4,0-2.5,0-3.4,0.1v-0.7
		c1.7-0.1,2.1-0.1,2.4-0.3c0.2-0.2,0.2-1.6,0.2-4v-5.7c0-2.4,0-3.7-0.2-4s-0.6-0.2-2.4-0.3v-0.7c1,0,1.8,0.1,3.6,0.1
		c1.2,0,2-0.1,3.6-0.1c3.1,0,5.1,1.9,5.1,4.5c0,2.9-2.5,4.6-5.4,4.6c-0.6,0-1.4,0-1.7-0.1v-0.8H157.5z"/>
	<path class="st0" d="M165.6,42.6l0.9-0.1c0.6-0.1,0.7-0.3,0.7-1v-8.1c0-4,0-4.6-0.2-5.1c-0.1-0.2-0.3-0.3-1.2-0.3v-0.6
		c0.9-0.2,2-0.6,2.7-0.9h0.6c-0.1,3.6-0.1,6.9-0.1,8.6l1-0.9c0.5-0.3,1.2-0.7,2.4-0.7c1.8,0,3.1,0.9,3.1,3.4c0,1.1-0.1,3.7-0.1,4.6
		c0,0.8,0,0.9,0.7,0.9l0.7,0.1v0.6c-0.6,0-1.2-0.1-2.1-0.1c-1,0-1.7,0-2.4,0.1v-0.5l1.1-0.1c0.6-0.1,0.7-0.2,0.7-3.6
		c0-0.6,0-1.7-0.1-2.5c-0.1-1.2-1.2-1.7-2-1.7c-1,0-1.8,0.5-2.6,1v5.8c0,0.7,0,1,0.7,1l0.9,0.1v0.6c-0.7,0-1.5-0.1-2.3-0.1
		c-1,0-1.7,0.1-2.4,0.1v-0.6H165.6z"/>
	<path class="st0" d="M183,33.9c0.3,0,0.9,0.1,1.7,0.1c0.6,0,1.2,0,1.8-0.1v0.6c-0.7,0-0.8,0.2-1,0.8l-2.4,6
		c-1.7,4.3-2.7,5.7-3.1,6.1c-0.3,0.3-1.1,0.7-1.8,0.7c-0.5,0-0.7-0.1-0.7-0.5c0-0.3,0.3-1.5,0.9-1.5c0.3,0,0.7,0.5,1,0.5
		c0.3,0,0.9-0.6,1.6-2l0.5-0.9l-2.4-5.8c-1.2-3.2-1.5-3.2-2-3.2v-0.6c0.5,0,1,0.1,1.8,0.1c0.8,0,1.5,0,2.1-0.1v0.6
		c-1,0-1.4,0.1-1.4,0.5c0,0.3,0.5,1.8,1.2,3.6l1.2,2.9c1-2.1,2.1-5.7,2.1-6.3c0-0.5-0.2-0.7-1.4-0.7L183,33.9L183,33.9z"/>
	<path class="st0" d="M187.3,40.5h0.8c0.2,1.7,1.2,2.4,2.3,2.4c1,0,1.8-0.8,1.8-1.7c0-0.7-0.5-1.1-1.2-1.5l-2-1
		c-1.2-0.7-1.8-1.4-1.8-2.5c0-1.5,1.2-2.6,3.3-2.6c0.9,0,1.7,0.1,2.5,0.3L193,36h-0.7c-0.3-1.4-1.1-1.9-2-1.9c-1,0-1.7,0.6-1.7,1.2
		c0,0.6,0.1,0.9,1.2,1.5l2.3,1.1c0.9,0.5,1.6,1.2,1.6,2.5c0,1.6-1.1,2.8-3.6,2.8c-0.8,0-1.9-0.2-2.6-0.7L187.3,40.5z"/>
	<path class="st0" d="M194.9,42.6l0.8-0.1c0.6-0.1,0.8-0.3,0.8-0.7c0.1-0.5,0.1-1.2,0.1-3.5c0-2.5,0-2.9-0.1-3.2
		c-0.2-0.5-0.8-0.6-1.2-0.6V34c1.6-0.1,2.1-0.3,2.7-1.4h0.5c-0.2,1.2-0.2,3.7-0.2,5.5c0,2.3,0,3.2,0.1,3.6c0,0.3,0.2,0.5,0.8,0.5
		l0.8,0.1V43c-0.8,0-1.7-0.1-2.5-0.1c-0.8,0-1.6,0-2.4,0.1v-0.3H194.9z M197.6,28c0.6,0,0.9,0.3,0.9,0.9c0,0.7-0.7,1.4-1.4,1.4
		c-0.6,0-0.9-0.5-0.9-0.9C196.3,28.4,197.1,28,197.6,28z"/>
	<path class="st0" d="M209,41.9c-1,1.1-2.1,1.6-3.4,1.6c-2.5,0-4.5-2-4.5-4.6c0-2.8,1.9-5.3,5-5.3c2.1,0,3.1,0.8,3.1,2
		c0,0.3-0.2,0.6-0.6,0.6s-1.2-0.3-1.4-0.9c-0.2-0.7-0.7-1-1.4-1c-1.1,0-3.1,1-3.1,3.8c0,2,1.2,4.2,3.5,4.2c0.8,0,1.8-0.3,2.4-0.7
		L209,41.9z"/>
	<path class="st0" d="M210.1,42.6l0.8-0.1c0.6-0.1,0.8-0.3,0.8-0.7c0.1-0.5,0.1-1.2,0.1-3.5c0-2.5,0-2.9-0.1-3.2
		c-0.2-0.5-0.8-0.6-1.2-0.6V34c1.6-0.1,2.1-0.3,2.7-1.4h0.5c-0.2,1.2-0.2,3.7-0.2,5.5c0,2.3,0,3.2,0.1,3.6c0,0.3,0.2,0.5,0.8,0.5
		l0.8,0.1V43c-0.8,0-1.7-0.1-2.5-0.1s-1.6,0-2.4,0.1v-0.3H210.1z M212.8,28c0.6,0,0.9,0.3,0.9,0.9c0,0.7-0.7,1.4-1.4,1.4
		c-0.6,0-0.9-0.5-0.9-0.9C211.4,28.4,212.3,28,212.8,28z"/>
	<path class="st0" d="M221.5,36.4c0-1.7-0.6-2-1.2-2c-0.9,0-2,0.5-2,1.8c0,1.2-0.8,1.4-1.2,1.4c-0.5,0-0.6-0.2-0.6-0.6
		c0-1.5,2.7-3.5,4.6-3.5c1.1,0,2.1,0.5,2.1,2.4c0,1.7-0.1,3.4-0.1,5.1c0,0.9,0.1,1.2,0.5,1.2c0.2,0,0.6-0.2,0.9-0.7l0.1,0.6
		c-0.2,0.6-1,1.2-1.6,1.2s-1-0.2-1.5-1.6c-1.5,1.2-2.5,1.6-3.3,1.6c-1.2,0-1.9-0.9-1.9-1.9c0-1.5,1.4-2.6,5.2-4.1V36.4z M221.5,38.1
		c-2.3,0.9-3.5,1.9-3.5,3.2c0,0.7,0.5,1.1,1.2,1.1c0.8,0,1.8-0.5,2.1-1.1c0.1-0.1,0.2-0.7,0.2-1.1v-2H221.5z"/>
	<path class="st0" d="M229.3,34.2c0.5-0.3,1.2-0.7,2.4-0.7c1.8,0,3.1,0.9,3.1,3.4c0,1.1-0.1,3.7-0.1,4.6c0,0.8,0,0.9,0.7,0.9
		l0.7,0.1v0.6c-0.6,0-1.2-0.1-2.1-0.1c-1,0-1.7,0-2.4,0.1v-0.6l1.1-0.1c0.6-0.1,0.7-0.2,0.7-3.6c0-0.6,0-1.7-0.1-2.5
		c-0.1-1.2-1.2-1.7-2-1.7c-1,0-1.8,0.5-2.6,1v5.8c0,0.7,0,1,0.7,1l0.9,0.1v0.6c-0.7,0-1.5-0.1-2.3-0.1c-1,0-1.7,0.1-2.4,0.1v-0.6
		l0.9-0.1c0.6-0.1,0.7-0.3,0.7-1v-5.3c0-0.7-0.2-0.9-1.2-1v-0.6c1.1-0.1,1.7-0.5,2.1-1.4h0.5v2l0,0L229.3,34.2z"/>
	<path class="st0" d="M237.4,40.5h0.8c0.2,1.7,1.2,2.4,2.3,2.4s1.8-0.8,1.8-1.7c0-0.7-0.5-1.1-1.2-1.5l-2-1
		c-1.2-0.7-1.8-1.4-1.8-2.5c0-1.5,1.2-2.6,3.3-2.6c0.9,0,1.7,0.1,2.5,0.3l0.1,2.1h-0.7c-0.3-1.4-1.1-1.9-2-1.9c-1,0-1.7,0.6-1.7,1.2
		c0,0.6,0.1,0.9,1.2,1.5l2.3,1.1c0.9,0.5,1.6,1.2,1.6,2.5c0,1.6-1.1,2.8-3.6,2.8c-0.8,0-1.9-0.2-2.6-0.7L237.4,40.5z"/>
</g>
<g>
	<path class="st0" d="M247.3,28.7c1.5,0,2.7,1.2,2.7,2.7c0,1.5-1.2,2.7-2.7,2.7c-1.5,0-2.7-1.2-2.7-2.7
		C244.6,29.9,245.8,28.7,247.3,28.7z M247.3,29c-1.2,0-2.4,1-2.4,2.4c0,1.2,1,2.4,2.4,2.4c1.2,0,2.4-1,2.4-2.4
		C249.7,30.2,248.6,29,247.3,29z M246,32.8c0.2,0,0.3-0.1,0.3-0.3v-1.8c0-0.2-0.1-0.3-0.3-0.3v-0.1h1.2c0.5,0,0.9,0.2,0.9,0.7
		c0,0.5-0.2,0.7-0.7,0.8l0.5,0.6c0.3,0.5,0.5,0.6,0.7,0.6v0.1h-0.5c-0.2,0-0.3-0.1-0.5-0.3l-0.6-0.9h-0.3v0.8c0,0.3,0.1,0.3,0.5,0.3
		v0.1H246V32.8z M247.3,31.4c0.5,0,0.6-0.2,0.6-0.7c0-0.5-0.2-0.6-0.6-0.6h-0.3v1.2H247.3z"/>
</g>
<g>
	<rect y="3.1" class="st0" width="4" height="4"/>
	<rect x="5.2" y="3.1" class="st0" width="4" height="4"/>
	<rect x="10.4" y="3.1" class="st0" width="4" height="4"/>
	<rect x="15.6" y="3.1" class="st0" width="4" height="4"/>
	<rect x="20.8" y="3.1" class="st0" width="4" height="4"/>
	<rect x="26" y="3.1" class="st0" width="4" height="4"/>
	<rect x="31.2" y="3.1" class="st0" width="4" height="4"/>
	<rect x="36.4" y="3.1" class="st0" width="4" height="4"/>
</g>
<g>
	<rect y="8.2" class="st0" width="4" height="4"/>
	<rect x="5.2" y="8.2" class="st0" width="4" height="4"/>
	<rect x="10.4" y="8.2" class="st0" width="4" height="4"/>
	<rect x="15.6" y="8.2" class="st0" width="4" height="4"/>
	<rect x="20.8" y="8.2" class="st0" width="4" height="4"/>
	<rect x="26" y="8.2" class="st0" width="4" height="4"/>
	<rect x="31.2" y="8.2" class="st0" width="4" height="4"/>
	<rect x="36.4" y="8.2" class="st0" width="4" height="4"/>
</g>
<rect y="13.4" class="st0" width="4" height="4"/>
<rect x="5.2" y="13.4" class="st0" width="4" height="4"/>
<rect x="10.4" y="13.4" class="st0" width="4" height="4"/>
<rect x="15.6" y="13.4" class="st0" width="4" height="4"/>
<rect x="26" y="13.4" class="st0" width="4" height="4"/>
<rect x="31.2" y="13.4" class="st0" width="4" height="4"/>
<rect x="36.4" y="13.4" class="st0" width="4" height="4"/>
<g>
	<rect y="18.5" class="st0" width="4" height="4"/>
	<rect x="5.2" y="18.5" class="st0" width="4" height="4"/>
	<rect x="10.4" y="18.5" class="st0" width="4" height="4"/>
	<rect x="15.6" y="18.5" class="st0" width="4" height="4"/>
	<rect x="20.8" y="18.5" class="st0" width="4" height="4"/>
	<rect x="26" y="18.5" class="st0" width="4" height="4"/>
	<rect x="31.2" y="18.5" class="st0" width="4" height="4"/>
	<rect x="36.4" y="18.5" class="st0" width="4" height="4"/>
</g>
<g>
	<rect y="23.7" class="st0" width="4" height="4"/>
	<rect x="5.2" y="23.7" class="st0" width="4" height="4"/>
	<rect x="10.4" y="23.7" class="st0" width="4" height="4"/>
	<rect x="15.6" y="23.7" class="st0" width="4" height="4"/>
	<rect x="20.8" y="23.7" class="st0" width="4" height="4"/>
	<rect x="26" y="23.7" class="st0" width="4" height="4"/>
	<rect x="31.2" y="23.7" class="st0" width="4" height="4"/>
	<rect x="36.4" y="23.7" class="st0" width="4" height="4"/>
</g>
<g>
	<rect y="28.8" class="st0" width="4" height="4"/>
	<rect x="5.2" y="28.8" class="st0" width="4" height="4"/>
	<rect x="10.4" y="28.8" class="st0" width="4" height="4"/>
	<rect x="15.6" y="28.8" class="st0" width="4" height="4"/>
	<rect x="20.8" y="28.8" class="st0" width="4" height="4"/>
	<rect x="26" y="28.8" class="st0" width="4" height="4"/>
	<rect x="31.2" y="28.8" class="st0" width="4" height="4"/>
	<rect x="36.4" y="28.8" class="st0" width="4" height="4"/>
</g>
<g>
	<rect y="33.9" class="st0" width="4" height="4"/>
	<rect x="5.2" y="33.9" class="st0" width="4" height="4"/>
	<rect x="10.4" y="33.9" class="st0" width="4" height="4"/>
	<rect x="15.6" y="33.9" class="st0" width="4" height="4"/>
	<rect x="20.8" y="33.9" class="st0" width="4" height="4"/>
	<rect x="26" y="33.9" class="st0" width="4" height="4"/>
	<rect x="31.2" y="33.9" class="st0" width="4" height="4"/>
	<rect x="36.4" y="33.9" class="st0" width="4" height="4"/>
</g>
<g>
	<rect y="39.1" class="st0" width="4" height="4"/>
	<rect x="5.2" y="39.1" class="st0" width="4" height="4"/>
	<rect x="10.4" y="39.1" class="st0" width="4" height="4"/>
	<rect x="15.6" y="39.1" class="st0" width="4" height="4"/>
	<rect x="20.8" y="39.1" class="st0" width="4" height="4"/>
	<rect x="26" y="39.1" class="st0" width="4" height="4"/>
	<rect x="31.2" y="39.1" class="st0" width="4" height="4"/>
	<rect x="36.4" y="39.1" class="st0" width="4" height="4"/>
</g>
</svg>
